<?xml version="1.0" encoding="UTF-8" standalone="no"?>
<!-- Created with Inkscape (http://www.inkscape.org/) -->

<svg
   version="1.1"
   id="svg1"
   width="6.7762146"
   height="9.1439819"
   viewBox="0 0 6.7762146 9.1439823"
   xmlns="http://www.w3.org/2000/svg"
   xmlns:svg="http://www.w3.org/2000/svg">
  <defs
     id="defs1" />
  <g
     id="g1"
     transform="translate(-416.70733,-553.97416)">
    <path
       style="fill:#000000;stroke-width:1.13386;stroke-linecap:round;stroke-linejoin:round;stroke-dasharray:1.13386, 2.26772;paint-order:stroke fill markers"
       d="m 416.80089,556.26415 1.12157,6.854 4.82895,-0.0935 0.73213,-7.07207 -5.38973,-0.0935 -0.0312,-0.31154 4.64203,-0.0779 -0.93464,-0.60751 -1.2306,-0.0935 v -0.77886 l -0.52963,-0.0156 -0.17135,0.74771 -1.99389,0.43617 -1.04368,0.59193 -0.0935,0.32712 0.31155,0.21809 5.67012,0.18692 -0.38943,5.9661 -3.89432,0.0311 -1.13714,-6.33995 z"
       id="path6" />
    <path
       style="fill:#000000;stroke-width:1.13386;stroke-linecap:round;stroke-linejoin:round;stroke-dasharray:1.13386, 2.26772;paint-order:stroke fill markers"
       d="m 418.14054,556.85609 0.49847,-0.0312 0.63867,4.70434 -0.42059,0.0779 z"
       id="path7" />
    <path
       style="fill:#000000;stroke-width:1.13386;stroke-linecap:round;stroke-linejoin:round;stroke-dasharray:1.13386, 2.26772;paint-order:stroke fill markers"
       d="m 419.71384,557.04301 h 0.59194 l 0.26481,4.19029 -0.48289,0.0156 z"
       id="path8" />
    <path
       style="fill:#000000;stroke-width:1.13386;stroke-linecap:round;stroke-linejoin:round;stroke-dasharray:1.13386, 2.26772;paint-order:stroke fill markers"
       d="m 421.27157,556.96513 0.57636,0.0779 v 4.15913 l -0.56078,-0.0156 z"
       id="path9" />
  </g>
</svg>
