<?xml version="1.0" encoding="UTF-8" standalone="no"?>
<!-- Created with Inkscape (http://www.inkscape.org/) -->

<svg
   version="1.1"
   id="svg1"
   width="10.530243"
   height="10.280945"
   viewBox="0 0 10.530243 10.280945"
   xmlns="http://www.w3.org/2000/svg"
   xmlns:svg="http://www.w3.org/2000/svg">
  <defs
     id="defs1" />
  <g
     id="g1"
     transform="translate(-388.51257,-553.14873)">
    <path
       style="fill:#000000;stroke-width:1.13386;stroke-linecap:round;stroke-linejoin:round;stroke-dasharray:1.13386, 2.26772;paint-order:stroke fill markers"
       d="m 389.19798,559.84692 0.0156,3.58277 3.39584,-0.57636 -0.28039,-0.49847 -2.43005,0.18693 -0.43617,-2.24313 z"
       id="path1" />
    <path
       style="fill:#000000;stroke-width:1.13386;stroke-linecap:round;stroke-linejoin:round;stroke-dasharray:1.13386, 2.26772;paint-order:stroke fill markers"
       d="m 389.19798,557.08975 -0.18693,-2.33659 -0.49847,-0.29597 0.6854,-0.12462 v -0.8879 l 0.23366,0.60751 3.30238,-0.0312 -0.57636,0.49847 h -2.52352 z"
       id="path2" />
    <path
       style="fill:#000000;stroke-width:1.13386;stroke-linecap:round;stroke-linejoin:round;stroke-dasharray:1.13386, 2.26772;paint-order:stroke fill markers"
       d="m 394.61887,554.00545 0.0935,0.52963 2.78833,0.0156 0.37386,2.99084 0.43616,-0.0779 -0.0156,-3.03757 0.74771,-0.31154 -1.24618,-0.3427 -0.12462,-0.62309 -0.37385,0.71655 z"
       id="path3" />
    <path
       style="fill:#000000;stroke-width:1.13386;stroke-linecap:round;stroke-linejoin:round;stroke-dasharray:1.13386, 2.26772;paint-order:stroke fill markers"
       d="m 394.77464,562.29255 -0.26481,0.57636 3.17776,0.0779 0.21808,0.29597 0.87233,-0.37386 -0.28039,-1.01252 -0.0156,-2.13409 -0.6854,-0.81001 0.0156,2.57025 -0.98137,0.10904 1.09041,0.26481 z"
       id="path4" />
  </g>
</svg>
