<?xml version="1.0" encoding="UTF-8" standalone="no"?>
<!-- Created with Inkscape (http://www.inkscape.org/) -->

<svg
   version="1.1"
   id="svg1"
   width="7.3213196"
   height="9.5177612"
   viewBox="0 0 7.3213196 9.5177616"
   xmlns="http://www.w3.org/2000/svg"
   xmlns:svg="http://www.w3.org/2000/svg">
  <defs
     id="defs1" />
  <g
     id="g1"
     transform="translate(-416.98782,-565.64158)">
    <path
       style="fill:#000000;fill-opacity:1;stroke:none;stroke-width:1.13386;stroke-linecap:round;stroke-linejoin:round;stroke-dasharray:1.13386, 2.26772;stroke-opacity:1;paint-order:stroke fill markers"
       d="m 416.98782,566.52957 0.32712,8.5675 4.20586,0.0623 -0.0312,-3.25564 -0.85675,-0.0623 0.32712,2.72602 -3.17776,0.0623 0.0623,-7.61729 0.5452,-0.46731 1.97832,0.0311 0.52962,2.08735 h 0.23366 l 0.0779,-2.71044 -1.49542,-0.31154 -1.30849,0.15577 z"
       id="path15" />
    <path
       style="fill:#000000;fill-opacity:1;stroke:none;stroke-width:1.13386;stroke-linecap:round;stroke-linejoin:round;stroke-dasharray:1.13386, 2.26772;stroke-opacity:1;paint-order:stroke fill markers"
       d="m 417.93803,570.86005 0.0156,0.63867 0.59194,-0.0312 0.0935,-0.60751 z"
       id="path16" />
    <path
       style="fill:#000000;fill-opacity:1;stroke:none;stroke-width:1.13386;stroke-linecap:round;stroke-linejoin:round;stroke-dasharray:1.13386, 2.26772;stroke-opacity:1;paint-order:stroke fill markers"
       d="m 418.85709,567.57325 0.73213,0.82559 0.0779,1.40196 2.27428,-0.24924 -0.15577,-1.55773 2.52352,1.40196 -0.0935,0.49847 -0.43616,0.0779 -1.0281,1.37079 -0.66982,-0.12461 -0.10904,-1.01253 0.49847,0.0156 0.0623,0.4829 0.96579,-1.05926 -0.98137,-0.77886 -0.0623,1.65119 -0.49847,-0.38943 -2.77275,0.28039 z"
       id="path17" />
  </g>
</svg>
