<?xml version="1.0" encoding="UTF-8" standalone="no"?>
<!-- Created with Inkscape (http://www.inkscape.org/) -->

<svg
   version="1.1"
   id="svg1"
   width="11.169922"
   height="10.732422"
   viewBox="0 0 11.169922 10.732422"
   xmlns="http://www.w3.org/2000/svg"
   xmlns:svg="http://www.w3.org/2000/svg">
  <defs
     id="defs1" />
  <g
     id="g1"
     transform="translate(-400.70898,-565.37694)">
    <path
       id="path11"
       style="fill:#000000;fill-opacity:1;stroke:none;stroke-width:1.13386;stroke-linecap:round;stroke-linejoin:round;stroke-dasharray:1.13386, 2.26772;stroke-opacity:1;paint-order:stroke fill markers"
       d="m 408.5918,565.37695 -1.375,1.46875 -0.80664,-1.0957 -0.5293,-0.18555 -3.13086,1.47852 0.0156,0.79492 0.50196,0.6875 -0.51758,0.63672 -1.97852,0.0625 -0.0625,2.38281 0.3125,0.21875 1.3711,0.125 0.0469,0.7461 -0.68554,0.70117 0.0937,0.60742 2.10156,1.79297 1.0293,-1.35547 0.67578,0.0449 -0.24024,1.52734 2.94336,0.0938 v -1.61915 l 0.66211,-0.0117 0.63086,0.38476 1.68359,-1.65039 -0.0625,-0.7793 -0.62304,-0.46679 0.20117,-0.4375 1.0293,-0.0781 -0.0156,-2.42969 -0.82617,-0.83984 -0.85742,0.0312 -0.0918,-0.15625 0.63867,-1.24609 -0.0937,-0.51367 z m 0.15625,0.79493 1.08984,0.70117 -0.62305,1.21484 0.7793,0.90234 1.08984,-0.0469 0.0312,1.79297 -0.59179,0.0449 -0.66992,1.24805 0.32617,0.35742 0.46875,0.31055 -1.13867,1.27734 -0.59766,-0.12695 -0.041,-0.0899 -1.21484,0.10938 -0.0469,1.33984 -1.4004,0.13867 -0.0312,-1.35547 -0.28711,-0.0293 0.006,-0.0176 -1.23046,-0.0137 -0.66993,0.77734 -1.38671,-0.90234 0.62304,-0.79492 -0.26367,-1.19922 -0.21875,-0.28125 -1.04297,-0.0937 -0.0156,-1.43164 1.46289,-0.34375 0.81054,-1.08985 -0.0176,-0.002 -0.0137,-0.1543 -0.57617,-1.12109 2.35156,-0.9043 0.7793,0.7793 0.43555,0.26367 v 0.002 h 0.002 0.002 l 0.27735,-0.0312 0.0625,-0.0508 0.25,-0.0586 -0.0606,-0.0918 z" />
    <path
       style="fill:#000000;fill-opacity:1;stroke:none;stroke-width:1.13386;stroke-linecap:round;stroke-linejoin:round;stroke-dasharray:1.13386, 2.26772;stroke-opacity:1;paint-order:stroke fill markers"
       d="m 404.96217,570.98467 0.76329,-0.0156 0.42058,0.57636 0.52963,0.0467 0.43616,-0.38943 -0.2025,-0.93464 -0.5452,-0.31154 -0.4829,0.42058 -0.0623,0.60752 -0.74771,0.29597 -0.10904,-0.8256 0.88791,-0.95021 h 1.04367 l 0.43617,0.15577 0.46731,0.46732 0.0935,0.6854 -0.21808,0.95021 -0.76329,0.49847 -0.91906,-0.12461 -0.6854,-0.35828 -0.21808,-0.35828 z"
       id="path14" />
  </g>
</svg>
